<svg xmlns="http://www.w3.org/2000/svg" viewBox="0 0 4168 1668" height="70px" width="100%">
    <path
        d="M502.3 311c-81.5 6.6-141 69-157.3 165-2.9 17.1-4 30.1-4.7 54.2l-.6 21.8-37.6.2-37.6.3-.3 40.7-.2 40.8h76v479h106V634h150l-.2-40.8-.3-40.7-74.7-.3-74.8-.2v-17.4c0-43.3 7.1-74 22.4-96.9 12.3-18.6 27.5-29.6 48.6-35.3 7.7-2.1 29.6-2.9 40.3-1.5 19.9 2.7 41.4 9.7 55.6 18.3 3.4 2.1 6.6 3.8 7 3.8.3 0 6.4-17.4 13.5-38.7 14.8-44.3 14.6-38.7 1.3-45.4-40-20.3-91.6-31.1-132.4-27.9zM3009.4 311c-107.6 6.2-176.4 67.7-192.5 172.3-1.6 9.9-2.2 20.2-2.6 40.9l-.6 27.8H2738v82h76v479h105V634h109v-82H2918.7l.7-13.3c2.6-50.5 14-85 35.9-108.4 18.7-20 42.6-29.3 75.2-29.3 34.6 0 58.2 8.9 76.6 28.7 16.2 17.6 25.5 41.5 28.8 74.2.8 6.9 1.1 92.5 1.1 260.5 0 165.6.3 253 1 258.6 4.9 39.6 25.2 70.4 57.6 87 18.9 9.7 36.8 13.4 64.9 13.5 25.1 0 46.3-3.1 78.5-11.6 14.3-3.8 38.8-11.7 39.4-12.8.5-.7-14-87.1-14.7-87.7-.1-.2-3.3.8-7 2.1-8.5 3.1-27.5 7.9-39.2 10-12.5 2.1-33.6 3-40.9 1.6-12.8-2.4-23.5-9.9-27.6-19.2-5.8-13.5-5.4 4.6-6-272.9-.7-280.7-.2-261.9-6.9-288.1-7.4-29.4-19.2-52-38.9-74.4-26.8-30.7-67.9-50.2-119.6-57-11.2-1.4-45.5-3.7-52.1-3.3-1.6 0-8.9.4-16.1.8zM1838 457v93l-38.2.2-38.3.3v82l38.3.3 38.2.2v183.8c0 121.9.4 188.3 1.1 197.2 1.2 15.8 5.2 32.4 10.2 43.4 9.7 21 26.3 38.5 46.8 49.5 9.5 5.1 31.2 12.3 44.4 14.7 13.8 2.6 49 2.6 65.5.1 24.6-3.8 54.6-12.4 80.6-23.3 21.5-8.9 25.6-11.1 25-13.2-.3-.9-5.6-19.5-11.7-41.2-6.2-21.7-11.4-39.7-11.5-39.9-.2-.2-4.1 1.4-8.6 3.6-26.7 13-54 19.3-77.8 18-30.9-1.6-51.1-18.3-56.4-46.6-1.4-7.4-1.6-27.2-1.6-177.2V633h125v-83h-125V364h-106v93zM851 542c-68.2 4.5-131.2 26.6-196.2 68.7-5.4 3.4-9.8 6.6-9.8 6.9 0 .6 36.8 71.4 37.6 72.2.1.2 4.9-2.5 10.6-6.1 37.3-23.4 74.9-41.2 102.8-48.6 51.6-13.7 109.3-10.8 146 7.3 10.8 5.4 14.8 7.9 24.3 15.5 22.3 18 37.2 48 40.6 81.5 1.6 15.9 1.5 58-.2 57.3-11.7-4.5-41.7-12.4-59.2-15.6-70.9-13-139.6-11.4-192.5 4.6-74.1 22.3-125.1 70-138 129.2-11.9 54.4 4.1 109.5 43.4 150 30.5 31.3 66.8 49.5 113.6 56.8 16.1 2.5 54.8 2.5 71 0 49.6-7.7 96.5-26.9 133.7-54.8 9.5-7.2 33.9-30.5 40-38.2l3-3.8 1 19.8c.9 17.3 1.4 20.6 3.6 26.5 6.8 17.9 21.7 33.9 37.4 40.3 15 6.1 36.4 7.7 59.3 4.6 8.5-1.2 16.7-2.4 18.3-2.7l2.7-.6-.2-41.1-.3-41.2-3-.3c-9.7-1-18.7-5.3-22.4-10.8-5.8-8.4-5.5-.9-6.1-148.4-.5-99.3-1-137.5-1.9-143-7.2-44.4-18.9-74.1-40.5-102.8-7.8-10.3-26.1-28.7-36.1-36.3-33.2-25.4-76.3-41.2-124-45.8-16.1-1.5-44.2-2.1-58.5-1.1zm45.6 299c36.9 2.9 70.6 9.8 101.2 20.8l10.2 3.6v35.1c0 38.9-.3 41.1-6.4 53.4-15.8 31.3-39.7 53.7-75.6 70.9-32.5 15.6-57.4 20.9-94.3 19.9-16.8-.4-22-.9-30.8-3-48.1-11.4-82-46.5-86.8-90-2.6-23.4 4-46.6 18.3-63.7 20.8-25.1 62.2-42.8 109.1-46.9 14.4-1.2 40.2-1.3 55.1-.1zM1453 542c-44.8 2.9-88.4 15-121.2 33.6-59.6 33.6-101.9 82.2-126.3 144.9-25.9 66.7-26.8 147.1-2.5 213.5 15.1 41.1 36.4 75 66.5 105.9 44.7 45.9 98.7 72.6 165 81.7 18.2 2.5 64.6 2.6 82.5.1 36.2-5 63.7-13.4 94-28.8 38.6-19.5 72.1-49.1 94.2-82.9 7.1-10.9 16.6-28.5 15.8-29.3-.3-.2-22.8-7.2-50.1-15.5-27.3-8.4-50.3-15.4-51.1-15.7-1-.4-2.7 2-6.1 8.7-11.3 22.7-33 42.1-64.2 57.3-21.9 10.7-40.2 15.7-64 17.5-50.9 3.9-97.3-14.2-134-52.1-15.7-16.2-24.9-29.2-35.3-49.7-16.1-31.6-22.6-60.2-22.6-99.2 0-39.1 6-67.4 20.8-97.5 21.9-44.4 57.5-77.1 101-92.4 27.6-9.8 63.7-11.7 95.2-5.1 33.4 7 65.8 26.3 85.9 51.3 5.7 7.1 15.8 22.1 16.8 25 .2.7 101.1-30.6 102.5-31.8 1.2-1.1-14.6-27.7-23.9-40.2-8.5-11.5-28-31.8-39.4-41-39.2-31.7-85.7-50.7-138.5-56.7-17.2-1.9-44.9-2.7-61-1.6zM2395.5 541.6c-78 4.2-144.6 35-196.4 90.9-67.8 73.1-92.2 188.6-61.4 290.4 10.2 33.7 28.9 69.6 50.3 96.6 8.6 10.8 28.4 31 40 40.7 28.8 24.3 70.1 45.2 107.9 54.8 43.7 11 96.4 11.9 141.4 2.4 52.5-11.1 101.1-37.5 139.2-75.8 46.7-46.9 74.8-107 82.6-176.6 1.7-15.2 1.4-50.8-.5-67-5.9-48.7-21.6-92.8-46.5-130.2C2640.2 650 2632 640 2617 625c-46.1-46.3-103-74-167.1-81.4-13.1-1.5-42.6-2.6-54.4-2zm35.5 92.5c21.3 2.6 38.2 7.8 56.9 17.5 52.8 27.2 90.3 78.7 101.1 138.7 4.4 24.3 4.9 51.6 1.4 75.7-4.7 33-17 63.3-37.4 92.3-8.4 12-31.7 35.2-44 44-11 7.8-34 19.5-45.4 23.2-31.9 10.2-71.3 10.5-101.8.9-57.9-18.3-106.6-72.4-122.7-136.2-5-19.9-6.5-33.1-6.5-56.7.1-23.3 1.5-36.4 6.3-56.1 17.5-71.2 74.9-129.2 139.9-141.3 5.9-1.1 12.3-2.2 14.2-2.4 7.9-.8 30.1-.6 38 .4zM3343.7 553.7c.8 2.1 54.1 128.8 118.4 281.5 64.3 152.7 116.9 278.4 116.9 279.3 0 .9-5.2 14.7-11.5 30.6-31.3 78.8-45.9 104.5-64.5 113.9-5.3 2.7-8.2 3.4-16.9 4.2-5.8.5-13.7.6-17.6.3-6.7-.6-31.1-4-36.7-5.1l-2.8-.6v92.9l11.8 2.7c16.5 3.8 24.9 4.4 48.8 3.5 26.6-1 38.5-3 56.6-9.5 35.4-12.8 65.5-41 83.8-78.9 3.3-6.8 241.3-630.2 273.8-717.3.3-1-10.1-1.2-51.3-1l-51.8.3-82.1 228.2c-45.1 125.6-82.3 227.9-82.7 227.5-.4-.4-41.7-103.1-91.7-228.2l-91-227.5-55.6-.3-55.5-.2 1.6 3.7z"></path>
</svg>